<?xml version="1.0" standalone="no"?>
<!DOCTYPE svg PUBLIC "-//W3C//DTD SVG 20010904//EN"
 "http://www.w3.org/TR/2001/REC-SVG-20010904/DTD/svg10.dtd">
<svg version="1.0" xmlns="http://www.w3.org/2000/svg"
 width="260.000000pt" height="260.000000pt" viewBox="0 0 260.000000 260.000000"
 preserveAspectRatio="xMidYMid meet">
<metadata>
Created by potrace 1.14, written by Peter Selinger 2001-2017
</metadata>
<g transform="translate(0.000000,260.000000) scale(0.100000,-0.100000)"
fill="#000000" stroke="none">
<path d="M0 1300 l0 -1300 1300 0 1300 0 0 1300 0 1300 -1300 0 -1300 0 0
-1300z m690 870 c42 -42 7 -100 -59 -100 -77 0 -157 -44 -187 -103 -13 -23
-145 -539 -209 -814 -5 -21 -2 -23 35 -23 35 0 40 3 46 28 28 127 88 223 183
293 244 179 588 102 720 -161 21 -43 42 -97 46 -119 7 -40 8 -41 45 -41 36 0
38 2 45 38 15 84 75 183 75 125 0 -20 39 -63 57 -63 16 0 16 1 -3 -51 -24 -66
-21 -172 6 -244 32 -83 122 -173 205 -204 49 -19 76 -22 145 -19 148 5 256 76
319 208 22 47 26 68 26 145 0 82 -3 97 -33 157 -20 41 -50 82 -77 106 -25 22
-45 46 -45 53 0 27 40 79 60 79 11 0 46 -26 78 -58 62 -62 117 -160 128 -230
l7 -42 44 0 c38 0 44 3 39 18 -3 9 -49 193 -101 409 -105 428 -114 451 -191
488 -20 9 -64 21 -97 25 -84 10 -113 54 -66 101 19 19 29 21 86 16 120 -12
222 -76 267 -170 14 -29 75 -255 137 -509 133 -541 135 -496 -19 -500 l-96 -3
-8 -43 c-18 -106 -99 -224 -198 -290 -158 -106 -376 -111 -529 -13 -107 69
-201 202 -217 308 -6 42 -7 43 -43 43 -36 0 -37 -1 -49 -52 -32 -136 -128
-253 -256 -314 -148 -71 -297 -69 -440 5 -67 34 -71 38 -71 70 0 31 3 35 40
46 36 10 46 8 105 -19 57 -27 76 -31 150 -31 72 0 94 5 145 28 288 134 291
522 5 656 -47 22 -69 26 -150 26 -82 0 -103 -4 -152 -27 -118 -55 -196 -170
-206 -300 -4 -59 -7 -68 -24 -68 -32 0 -59 -20 -73 -53 l-13 -30 -7 31 -7 32
-91 0 c-92 0 -127 13 -127 46 0 32 224 923 241 955 10 20 30 51 45 68 73 87
263 142 314 91z m1089 -699 c24 -5 50 -16 58 -24 13 -13 9 -15 -34 -21 -26 -4
-60 -9 -75 -12 -20 -4 -28 -2 -28 9 0 23 -38 65 -63 70 -20 3 -18 5 13 20 34
15 36 15 60 -8 14 -13 45 -28 69 -34z"/>
</g>
</svg>
