<svg display="none"  xmlns="http://www.w3.org/2000/svg">

 <symbol id="instagram" viewBox="0 0 20 20">
        <g>
        <path d="M12.5256 10.0001C12.5256 11.3949 11.3949 12.5257 9.99999 12.5257V14.5257C12.4994 14.5257 14.5256 12.4995 14.5256 10.0001H12.5256ZM9.99999 12.5257C8.60512 12.5257 7.47435 11.3949 7.47435 10.0001H5.47435C5.47435 12.4995 7.50055 14.5257 9.99999 14.5257V12.5257ZM7.47435 10.0001C7.47435 8.60518 8.60512 7.47441 9.99999 7.47441V5.47441C7.50055 5.47441 5.47435 7.50061 5.47435 10.0001H7.47435ZM9.99999 7.47441C11.3949 7.47441 12.5256 8.60518 12.5256 10.0001H14.5256C14.5256 7.50061 12.4994 5.47441 9.99999 5.47441V7.47441ZM9.99999 17.4616C8.67211 17.4616 7.72629 17.461 6.98154 17.4102C6.24578 17.36 5.77961 17.2641 5.40343 17.1083L4.63807 18.9561C5.29855 19.2297 6.00781 19.3484 6.8454 19.4056C7.67401 19.4621 8.69948 19.4616 9.99999 19.4616V17.4616ZM0.538452 10.0001C0.538452 11.3006 0.537911 12.326 0.594446 13.1546C0.651595 13.9922 0.770388 14.7015 1.04397 15.362L2.89173 14.5966C2.73591 14.2204 2.64001 13.7543 2.58981 13.0185C2.53899 12.2738 2.53845 11.3279 2.53845 10.0001H0.538452ZM5.40343 17.1083C4.26625 16.6373 3.36277 15.7338 2.89173 14.5966L1.04397 15.362C1.71799 16.9892 3.01083 18.282 4.63807 18.9561L5.40343 17.1083ZM17.4615 10.0001C17.4615 11.3279 17.461 12.2738 17.4102 13.0185C17.36 13.7543 17.2641 14.2204 17.1083 14.5966L18.956 15.362C19.2296 14.7015 19.3484 13.9922 19.4055 13.1546C19.4621 12.326 19.4615 11.3006 19.4615 10.0001H17.4615ZM9.99999 19.4616C11.3005 19.4616 12.326 19.4621 13.1546 19.4056C13.9922 19.3484 14.7014 19.2297 15.3619 18.9561L14.5965 17.1083C14.2204 17.2641 13.7542 17.36 13.0184 17.4102C12.2737 17.461 11.3279 17.4616 9.99999 17.4616V19.4616ZM17.1083 14.5966C16.6372 15.7338 15.7337 16.6373 14.5965 17.1083L15.3619 18.9561C16.9892 18.282 18.282 16.9892 18.956 15.362L17.1083 14.5966ZM9.99999 2.53851C11.3279 2.53851 12.2737 2.53905 13.0184 2.58987C13.7542 2.64007 14.2204 2.73597 14.5965 2.89179L15.3619 1.04403C14.7014 0.770449 13.9922 0.651656 13.1546 0.594507C12.326 0.537972 11.3005 0.538513 9.99999 0.538513V2.53851ZM19.4615 10.0001C19.4615 8.69954 19.4621 7.67407 19.4055 6.84546C19.3484 6.00787 19.2296 5.29861 18.956 4.63813L17.1083 5.4035C17.2641 5.77967 17.36 6.24584 17.4102 6.9816C17.461 7.72635 17.4615 8.67217 17.4615 10.0001H19.4615ZM14.5965 2.89179C15.7337 3.36283 16.6372 4.26631 17.1083 5.4035L18.956 4.63813C18.282 3.01089 16.9892 1.71806 15.3619 1.04403L14.5965 2.89179ZM9.99999 0.538513C8.69948 0.538513 7.67401 0.537972 6.8454 0.594507C6.00781 0.651656 5.29855 0.770449 4.63807 1.04403L5.40343 2.89179C5.77961 2.73597 6.24578 2.64007 6.98154 2.58987C7.72629 2.53905 8.67211 2.53851 9.99999 2.53851V0.538513ZM2.53845 10.0001C2.53845 8.67217 2.53899 7.72635 2.58981 6.9816C2.64001 6.24584 2.73591 5.77967 2.89173 5.4035L1.04397 4.63813C0.770388 5.29861 0.651595 6.00787 0.594446 6.84546C0.537911 7.67407 0.538452 8.69954 0.538452 10.0001H2.53845ZM4.63807 1.04403C3.01083 1.71806 1.71799 3.01089 1.04397 4.63813L2.89173 5.4035C3.36277 4.26631 4.26625 3.36283 5.40343 2.89179L4.63807 1.04403Z">
        </g>
    </symbol>
    <symbol id="phone" viewBox="0 0 20 20">
        <g>
        <path d="M10.0001 19.2308C4.92313 19.2308 0.769287 15.077 0.769287 10.0001C0.769287 4.92313 4.92313 0.769287 10.0001 0.769287C15.077 0.769287 19.2308 4.92313 19.2308 10.0001C19.2308 15.077 15.077 19.2308 10.0001 19.2308ZM10.0001 1.92313C5.55775 1.92313 1.92313 5.55775 1.92313 10.0001C1.92313 14.4424 5.55775 18.077 10.0001 18.077C14.4424 18.077 18.077 14.4424 18.077 10.0001C18.077 5.55775 14.4424 1.92313 10.0001 1.92313Z" />
        <path d="M9.64085 6.34213L9.51397 6.12296C9.42836 5.9749 9.38562 5.90089 9.34179 5.84323C9.01866 5.41807 8.4432 5.26828 7.94483 5.47941C7.87724 5.50805 7.80219 5.55099 7.65195 5.63761C6.83644 6.15562 6.89782 7.92355 6.95028 8.18552C6.95028 8.18552 6.9609 9.05164 8.14374 11.0976C9.32658 13.1436 10.1991 13.8053 10.1991 13.8053C10.6955 14.2137 11.9024 14.9187 12.7594 14.4724C12.9096 14.3858 12.9846 14.3424 13.0433 14.2983C13.4755 13.9728 13.6333 13.4 13.4261 12.9079C13.398 12.8412 13.3553 12.7671 13.2697 12.619L13.143 12.3999C13.0052 12.1615 12.9139 12.0038 12.83 11.8902C12.7585 11.7934 12.655 11.7266 12.5455 11.673C12.0723 11.4418 11.138 11.6606 10.6462 11.4678C10.5953 11.4479 10.5455 11.4246 10.4971 11.3981C10.4477 11.371 10.4003 11.3411 10.3577 11.3045C10.225 11.1903 9.91153 10.8907 9.6227 10.3911C9.24881 9.7444 9.21883 9.28783 9.2181 9.27577V9.27497C9.21033 9.13319 9.22387 8.99268 9.2566 8.85696C9.37745 8.35594 9.99418 7.66362 9.9866 7.15304C9.98548 7.07748 9.97845 7.00176 9.95229 6.93149C9.89948 6.78965 9.8021 6.62104 9.64085 6.34213Z">
        </g>
    </symbol>
<symbol id="logo" viewBox="0 0 147 40">
<g>
<path d="M72.1933 18.4249C72.1932 18.0921 72.3255 17.7726 72.562 17.5345C72.7985 17.2965 73.1204 17.1589 73.4588 17.1511H80.6703C85.7826 17.1511 89.1473 19.827 89.1473 24.211V24.2703C89.1473 29.069 85.0695 31.5573 80.2484 31.5573H74.7544V38.2913C74.7702 38.466 74.7488 38.6421 74.6916 38.8082C74.6344 38.9743 74.5426 39.1269 74.4222 39.2563C74.3017 39.3856 74.1552 39.489 73.992 39.5596C73.8287 39.6303 73.6522 39.6668 73.4738 39.6668C73.2954 39.6668 73.119 39.6303 72.9557 39.5596C72.7925 39.489 72.6459 39.3856 72.5255 39.2563C72.405 39.1269 72.3133 38.9743 72.2561 38.8082C72.1989 38.6421 72.1775 38.466 72.1933 38.2913V18.4249ZM80.3489 29.2863C84.0952 29.2863 86.556 27.3115 86.556 24.3493V24.29C86.556 21.1106 84.1354 19.4616 80.5297 19.4616H74.8047V29.2468L80.3489 29.2863Z"/>
<path d="M94.0186 18.2669C94.0028 18.0922 94.0242 17.9162 94.0814 17.7501C94.1386 17.5839 94.2304 17.4313 94.3508 17.302C94.4713 17.1726 94.6178 17.0693 94.781 16.9986C94.9443 16.9279 95.1208 16.8914 95.2992 16.8914C95.4776 16.8914 95.654 16.9279 95.8173 16.9986C95.9806 17.0693 96.1271 17.1726 96.2475 17.302C96.368 17.4313 96.4597 17.5839 96.5169 17.7501C96.5741 17.9162 96.5955 18.0922 96.5798 18.2669V38.2913C96.5955 38.466 96.5741 38.642 96.5169 38.8082C96.4597 38.9743 96.368 39.1269 96.2475 39.2563C96.1271 39.3856 95.9806 39.489 95.8173 39.5596C95.654 39.6303 95.4776 39.6668 95.2992 39.6668C95.1208 39.6668 94.9443 39.6303 94.781 39.5596C94.6178 39.489 94.4713 39.3856 94.3508 39.2563C94.2304 39.1269 94.1386 38.9743 94.0814 38.8082C94.0242 38.642 94.0028 38.466 94.0186 38.2913V18.2669Z" />
<path d="M103.199 18.2965C103.206 17.9699 103.343 17.6588 103.579 17.4287C103.815 17.1986 104.132 17.0673 104.464 17.0623H104.816C105.077 17.0675 105.332 17.1372 105.559 17.2649C105.785 17.3925 105.975 17.5741 106.111 17.7929L119.862 35.0231V18.2373C119.862 17.9125 119.993 17.6011 120.226 17.3715C120.46 17.1419 120.777 17.0129 121.107 17.0129C121.437 17.0129 121.754 17.1419 121.988 17.3715C122.221 17.6011 122.352 17.9125 122.352 18.2373V38.3308C122.358 38.4836 122.332 38.6359 122.275 38.7784C122.219 38.9209 122.134 39.0506 122.025 39.1596C121.916 39.2687 121.785 39.3547 121.641 39.4125C121.497 39.4704 121.343 39.4987 121.187 39.496H121.057C120.79 39.4779 120.531 39.3989 120.301 39.2652C120.071 39.1314 119.876 38.9468 119.731 38.7258L105.67 21.0908V38.3308C105.667 38.6491 105.541 38.9544 105.317 39.184C105.093 39.4135 104.788 39.5499 104.464 39.5651C104.136 39.5599 103.823 39.4272 103.593 39.1961C103.363 38.9649 103.236 38.6539 103.239 38.3308V18.2965H103.199Z" />
<path d="M128.74 18.2669C128.724 18.0922 128.746 17.9162 128.803 17.7501C128.86 17.5839 128.952 17.4313 129.072 17.302C129.193 17.1726 129.339 17.0693 129.503 16.9986C129.666 16.9279 129.842 16.8914 130.021 16.8914C130.199 16.8914 130.376 16.9279 130.539 16.9986C130.702 17.0693 130.849 17.1726 130.969 17.302C131.09 17.4313 131.181 17.5839 131.239 17.7501C131.296 17.9162 131.317 18.0922 131.301 18.2669V30.4415L144.198 17.4375C144.462 17.1684 144.822 17.0094 145.202 16.9931C145.531 17.0057 145.842 17.1418 146.072 17.3732C146.302 17.6046 146.433 17.9139 146.438 18.2373C146.43 18.4054 146.39 18.5706 146.317 18.7231C146.245 18.8756 146.142 19.0125 146.016 19.1259L137.981 26.9461L146.648 37.3731C146.875 37.631 147 37.9604 147 38.3012C146.996 38.472 146.958 38.6402 146.887 38.7964C146.817 38.9525 146.716 39.0934 146.59 39.2109C146.464 39.3284 146.315 39.4202 146.153 39.481C145.991 39.5418 145.818 39.5703 145.644 39.5651C145.442 39.557 145.245 39.5006 145.07 39.4008C144.895 39.3011 144.747 39.1609 144.64 38.9924L136.183 28.6346L131.301 33.4333V38.2716C131.301 38.4363 131.268 38.5993 131.204 38.7515C131.14 38.9036 131.046 39.0419 130.928 39.1583C130.809 39.2747 130.669 39.3671 130.514 39.4301C130.359 39.4932 130.193 39.5256 130.026 39.5256C129.858 39.5256 129.692 39.4932 129.538 39.4301C129.383 39.3671 129.242 39.2747 129.124 39.1583C129.005 39.0419 128.911 38.9036 128.847 38.7515C128.783 38.5993 128.75 38.4363 128.75 38.2716V18.2669H128.74Z" />
<path d="M98.9401 9.74563C97.9749 9.74563 97.0491 9.36936 96.3656 8.69932C95.6822 8.02927 95.2969 7.12014 95.2942 6.17125C95.2942 7.11923 94.9111 8.02839 94.2293 8.69872C93.5474 9.36905 92.6226 9.74563 91.6583 9.74563C92.6235 9.74825 93.5483 10.127 94.2299 10.7989C94.9115 11.4708 95.2942 12.381 95.2942 13.3299C95.2969 12.3801 95.6818 11.4699 96.365 10.7983C97.0482 10.1267 97.974 9.74824 98.9401 9.74563Z" fill="#D22856"/>
<!-- <path d="M43.287 19.0667C43.5381 19.0667 43.7792 19.0667 44.0202 19.0667C43.8019 18.6988 43.4897 18.3933 43.1145 18.1803C42.7393 17.9673 42.3141 17.8542 41.8809 17.8522C41.4627 17.8519 41.055 17.7233 40.7147 17.4843C40.3745 17.2454 40.1185 16.908 39.9826 16.5192C39.2588 16.7245 38.5561 16.9955 37.8834 17.3289H38.0743C38.607 17.3289 39.118 17.5369 39.4947 17.9073C39.8714 18.2776 40.083 18.7799 40.083 19.3037C40.088 19.399 40.088 19.4946 40.083 19.59C41.109 19.2225 42.1953 19.0451 43.287 19.0667Z" />
<path d="M60.7332 27.6472L55.5406 6.56621C55.179 4.24582 52.9291 0 46.9028 0C46.5033 0 46.1201 0.156044 45.8375 0.433804C45.555 0.711564 45.3962 1.08829 45.3962 1.4811C45.3962 1.87391 45.555 2.25063 45.8375 2.52839C46.1201 2.80615 46.5033 2.9622 46.9028 2.9622C51.7741 2.9622 52.4973 6.6452 52.5676 7.05003L57.3484 26.5018H55.2493C55.0321 24.805 54.4439 23.1744 53.525 21.7222C52.6061 20.2701 51.3783 19.0307 49.926 18.0892C49.4712 18.2774 49.0829 18.5932 48.8096 18.9971C48.5363 19.401 48.3901 19.8751 48.3893 20.3602C48.3948 20.4457 48.3948 20.5314 48.3893 20.6169C49.6107 21.4404 50.6131 22.5401 51.3122 23.8236C52.0113 25.1072 52.3867 26.537 52.4069 27.9928C52.4008 28.4894 52.3538 28.9847 52.2663 29.4739C51.9375 31.5714 50.8559 33.484 49.2173 34.8657C47.5786 36.2474 45.4911 37.007 43.3322 37.007C41.1734 37.007 39.0859 36.2474 37.4472 34.8657C35.8086 33.484 34.727 31.5714 34.3982 29.4739C34.3107 28.9847 34.2636 28.4894 34.2576 27.9928C34.2733 26.6229 34.5993 25.2737 35.2118 24.0432C34.7037 24.0081 34.2282 23.7847 33.8814 23.4181C33.5346 23.0515 33.3424 22.569 33.3436 22.0684C33.3453 21.889 33.277 21.7159 33.1528 21.5846C32.181 23.0752 31.5662 24.7633 31.3549 26.5215H29.4868C29.1663 23.6174 27.7658 20.9319 25.5542 18.9809C23.3427 17.0298 20.4759 15.9507 17.5044 15.9507C14.5329 15.9507 11.6662 17.0298 9.45463 18.9809C7.24307 20.9319 5.84259 23.6174 5.5221 26.5215H3.44302L8.23394 7.05003C8.29421 6.6452 9.0475 2.9622 13.8987 2.9622C14.2983 2.9622 14.6815 2.80615 14.964 2.52839C15.2465 2.25063 15.4053 1.87391 15.4053 1.4811C15.4053 1.08829 15.2465 0.711564 14.964 0.433804C14.6815 0.156044 14.2983 0 13.8987 0C7.87236 0 5.62254 4.24582 5.26096 6.56621L0.0582358 27.6472C-0.00612168 27.8617 -0.0173251 28.0883 0.0255611 28.308C0.0684473 28.5277 0.164178 28.7341 0.304759 28.91C0.44534 29.0859 0.62669 29.2262 0.833664 29.3191C1.04064 29.4121 1.26723 29.455 1.49451 29.4443H5.51206C5.59378 30.055 5.72135 30.659 5.89372 31.2512C5.95717 31.1429 5.99172 31.0206 5.99416 30.8957C5.99416 30.372 6.2058 29.8697 6.58252 29.4993C6.95923 29.129 7.47017 28.9209 8.00293 28.9209C8.16603 28.9231 8.32812 28.9463 8.48504 28.99C8.44128 28.6461 8.41781 28.2999 8.41473 27.9533C8.41742 27.4569 8.46109 26.9616 8.5453 26.4722C8.86708 24.3679 9.94627 22.4469 11.5867 21.0586C13.2271 19.6702 15.3198 18.9066 17.4843 18.9066C19.6489 18.9066 21.7416 19.6702 23.382 21.0586C25.0224 22.4469 26.1016 24.3679 26.4234 26.4722C26.5076 26.9616 26.5513 27.4569 26.554 27.9533C26.5382 30.3054 25.5807 32.5567 23.8889 34.2199C22.1971 35.8831 19.907 36.8243 17.5145 36.8399C15.5563 36.8663 13.6424 36.2668 12.0607 35.1317C11.6982 35.4412 11.235 35.6128 10.755 35.6155C10.5569 35.6181 10.3679 35.6973 10.2288 35.8359C10.0897 35.9745 10.0117 36.1613 10.0117 36.356C10.009 36.6321 9.94739 36.9046 9.83092 37.1558C11.9797 38.9066 14.6835 39.8636 17.4743 39.8613C20.4223 39.8738 23.2728 38.8236 25.4864 36.9095C27.7 34.9953 29.1232 32.35 29.4868 29.4739H31.3147C31.6456 32.3691 33.0499 35.0431 35.2593 36.9848C37.4688 38.9266 40.3285 40 43.2921 40C46.2557 40 49.1154 38.9266 51.3248 36.9848C53.5343 35.0431 54.9385 32.3691 55.2694 29.4739H59.2869C59.5191 29.4904 59.7519 29.4503 59.9647 29.3573C60.1774 29.2642 60.3635 29.121 60.5065 28.9404C60.6495 28.7598 60.7451 28.5473 60.7846 28.3217C60.8241 28.0961 60.8065 27.8645 60.7332 27.6472Z" />
<path d="M50.9203 15.9169C50.3273 15.9182 49.7398 15.8045 49.1915 15.5822C48.6432 15.36 48.1448 15.0337 47.725 14.6219C47.3052 14.21 46.9721 13.7209 46.7448 13.1823C46.5176 12.6438 46.4006 12.0665 46.4006 11.4835C46.3979 12.6602 45.9206 13.7878 45.0733 14.619C44.2259 15.4501 43.0778 15.9169 41.8809 15.9169C43.0788 15.9195 44.2268 16.3885 45.0739 17.2212C45.9209 18.0539 46.3979 19.1825 46.4006 20.3602C46.4006 19.1817 46.8768 18.0516 47.7244 17.2183C48.572 16.385 49.7216 15.9169 50.9203 15.9169Z" fill="#D22856"/>
<path d="M38.0743 19.3826C37.3417 19.3826 36.6392 19.0966 36.1212 18.5873C35.6032 18.0781 35.3122 17.3875 35.3122 16.6673C35.3122 17.3857 35.0226 18.0749 34.5068 18.5839C33.9909 19.0928 33.291 19.38 32.5602 19.3826C33.2901 19.3826 33.99 19.6677 34.5062 20.1751C35.0223 20.6824 35.3122 21.3706 35.3122 22.0881C35.3149 21.3697 35.607 20.6816 36.1247 20.1745C36.6424 19.6674 37.3435 19.3826 38.0743 19.3826Z" fill="#D22856"/>
<path d="M10.7851 33.6407C10.0561 33.6355 9.35868 33.3471 8.84503 32.8384C8.33138 32.3298 8.04314 31.6421 8.04316 30.9253C8.04316 31.6438 7.75354 32.333 7.23772 32.8419C6.7219 33.3508 6.02194 33.6381 5.29114 33.6407C6.02194 33.6433 6.7219 33.9305 7.23772 34.4395C7.75354 34.9484 8.04316 35.6376 8.04316 36.356C8.04314 35.6393 8.33138 34.9516 8.84503 34.4429C9.35868 33.9343 10.0561 33.6459 10.7851 33.6407Z" fill="#D22856"/> -->
</g>
</symbol>

<symbol  id="optik" viewBox="0 0 147 40">
<g>
<path d="M43.287 19.0667C43.5381 19.0667 43.7792 19.0667 44.0202 19.0667C43.8019 18.6988 43.4897 18.3933 43.1145 18.1803C42.7393 17.9673 42.3141 17.8542 41.8809 17.8522C41.4627 17.8519 41.055 17.7233 40.7147 17.4843C40.3745 17.2454 40.1185 16.908 39.9826 16.5192C39.2588 16.7245 38.5561 16.9955 37.8834 17.3289H38.0743C38.607 17.3289 39.118 17.5369 39.4947 17.9073C39.8714 18.2776 40.083 18.7799 40.083 19.3037C40.088 19.399 40.088 19.4946 40.083 19.59C41.109 19.2225 42.1953 19.0451 43.287 19.0667Z" />
<path d="M60.7332 27.6472L55.5406 6.56621C55.179 4.24582 52.9291 0 46.9028 0C46.5033 0 46.1201 0.156044 45.8375 0.433804C45.555 0.711564 45.3962 1.08829 45.3962 1.4811C45.3962 1.87391 45.555 2.25063 45.8375 2.52839C46.1201 2.80615 46.5033 2.9622 46.9028 2.9622C51.7741 2.9622 52.4973 6.6452 52.5676 7.05003L57.3484 26.5018H55.2493C55.0321 24.805 54.4439 23.1744 53.525 21.7222C52.6061 20.2701 51.3783 19.0307 49.926 18.0892C49.4712 18.2774 49.0829 18.5932 48.8096 18.9971C48.5363 19.401 48.3901 19.8751 48.3893 20.3602C48.3948 20.4457 48.3948 20.5314 48.3893 20.6169C49.6107 21.4404 50.6131 22.5401 51.3122 23.8236C52.0113 25.1072 52.3867 26.537 52.4069 27.9928C52.4008 28.4894 52.3538 28.9847 52.2663 29.4739C51.9375 31.5714 50.8559 33.484 49.2173 34.8657C47.5786 36.2474 45.4911 37.007 43.3322 37.007C41.1734 37.007 39.0859 36.2474 37.4472 34.8657C35.8086 33.484 34.727 31.5714 34.3982 29.4739C34.3107 28.9847 34.2636 28.4894 34.2576 27.9928C34.2733 26.6229 34.5993 25.2737 35.2118 24.0432C34.7037 24.0081 34.2282 23.7847 33.8814 23.4181C33.5346 23.0515 33.3424 22.569 33.3436 22.0684C33.3453 21.889 33.277 21.7159 33.1528 21.5846C32.181 23.0752 31.5662 24.7633 31.3549 26.5215H29.4868C29.1663 23.6174 27.7658 20.9319 25.5542 18.9809C23.3427 17.0298 20.4759 15.9507 17.5044 15.9507C14.5329 15.9507 11.6662 17.0298 9.45463 18.9809C7.24307 20.9319 5.84259 23.6174 5.5221 26.5215H3.44302L8.23394 7.05003C8.29421 6.6452 9.0475 2.9622 13.8987 2.9622C14.2983 2.9622 14.6815 2.80615 14.964 2.52839C15.2465 2.25063 15.4053 1.87391 15.4053 1.4811C15.4053 1.08829 15.2465 0.711564 14.964 0.433804C14.6815 0.156044 14.2983 0 13.8987 0C7.87236 0 5.62254 4.24582 5.26096 6.56621L0.0582358 27.6472C-0.00612168 27.8617 -0.0173251 28.0883 0.0255611 28.308C0.0684473 28.5277 0.164178 28.7341 0.304759 28.91C0.44534 29.0859 0.62669 29.2262 0.833664 29.3191C1.04064 29.4121 1.26723 29.455 1.49451 29.4443H5.51206C5.59378 30.055 5.72135 30.659 5.89372 31.2512C5.95717 31.1429 5.99172 31.0206 5.99416 30.8957C5.99416 30.372 6.2058 29.8697 6.58252 29.4993C6.95923 29.129 7.47017 28.9209 8.00293 28.9209C8.16603 28.9231 8.32812 28.9463 8.48504 28.99C8.44128 28.6461 8.41781 28.2999 8.41473 27.9533C8.41742 27.4569 8.46109 26.9616 8.5453 26.4722C8.86708 24.3679 9.94627 22.4469 11.5867 21.0586C13.2271 19.6702 15.3198 18.9066 17.4843 18.9066C19.6489 18.9066 21.7416 19.6702 23.382 21.0586C25.0224 22.4469 26.1016 24.3679 26.4234 26.4722C26.5076 26.9616 26.5513 27.4569 26.554 27.9533C26.5382 30.3054 25.5807 32.5567 23.8889 34.2199C22.1971 35.8831 19.907 36.8243 17.5145 36.8399C15.5563 36.8663 13.6424 36.2668 12.0607 35.1317C11.6982 35.4412 11.235 35.6128 10.755 35.6155C10.5569 35.6181 10.3679 35.6973 10.2288 35.8359C10.0897 35.9745 10.0117 36.1613 10.0117 36.356C10.009 36.6321 9.94739 36.9046 9.83092 37.1558C11.9797 38.9066 14.6835 39.8636 17.4743 39.8613C20.4223 39.8738 23.2728 38.8236 25.4864 36.9095C27.7 34.9953 29.1232 32.35 29.4868 29.4739H31.3147C31.6456 32.3691 33.0499 35.0431 35.2593 36.9848C37.4688 38.9266 40.3285 40 43.2921 40C46.2557 40 49.1154 38.9266 51.3248 36.9848C53.5343 35.0431 54.9385 32.3691 55.2694 29.4739H59.2869C59.5191 29.4904 59.7519 29.4503 59.9647 29.3573C60.1774 29.2642 60.3635 29.121 60.5065 28.9404C60.6495 28.7598 60.7451 28.5473 60.7846 28.3217C60.8241 28.0961 60.8065 27.8645 60.7332 27.6472Z" />
<path d="M50.9203 15.9169C50.3273 15.9182 49.7398 15.8045 49.1915 15.5822C48.6432 15.36 48.1448 15.0337 47.725 14.6219C47.3052 14.21 46.9721 13.7209 46.7448 13.1823C46.5176 12.6438 46.4006 12.0665 46.4006 11.4835C46.3979 12.6602 45.9206 13.7878 45.0733 14.619C44.2259 15.4501 43.0778 15.9169 41.8809 15.9169C43.0788 15.9195 44.2268 16.3885 45.0739 17.2212C45.9209 18.0539 46.3979 19.1825 46.4006 20.3602C46.4006 19.1817 46.8768 18.0516 47.7244 17.2183C48.572 16.385 49.7216 15.9169 50.9203 15.9169Z" fill="#D22856"/>
<path d="M38.0743 19.3826C37.3417 19.3826 36.6392 19.0966 36.1212 18.5873C35.6032 18.0781 35.3122 17.3875 35.3122 16.6673C35.3122 17.3857 35.0226 18.0749 34.5068 18.5839C33.9909 19.0928 33.291 19.38 32.5602 19.3826C33.2901 19.3826 33.99 19.6677 34.5062 20.1751C35.0223 20.6824 35.3122 21.3706 35.3122 22.0881C35.3149 21.3697 35.607 20.6816 36.1247 20.1745C36.6424 19.6674 37.3435 19.3826 38.0743 19.3826Z" fill="#D22856"/>
<path d="M10.7851 33.6407C10.0561 33.6355 9.35868 33.3471 8.84503 32.8384C8.33138 32.3298 8.04314 31.6421 8.04316 30.9253C8.04316 31.6438 7.75354 32.333 7.23772 32.8419C6.7219 33.3508 6.02194 33.6381 5.29114 33.6407C6.02194 33.6433 6.7219 33.9305 7.23772 34.4395C7.75354 34.9484 8.04316 35.6376 8.04316 36.356C8.04314 35.6393 8.33138 34.9516 8.84503 34.4429C9.35868 33.9343 10.0561 33.6459 10.7851 33.6407Z" fill="#D22856"/>
</g>
</symbol>

<symbol  id="twitter" viewBox="0 0 18 14">
<g>
<path d="M11.5641 0.168904C12.2458 -0.0461515 12.9837 -0.0560928 13.6719 0.140507C14.3602 0.337107 14.9633 0.730138 15.3947 1.26319C16.1053 1.05385 16.8055 0.815959 17.5263 0.606617C17.5164 0.925848 17.4299 1.23907 17.2732 1.52372C17.1165 1.80837 16.8935 2.05738 16.6201 2.2528C16.8726 2.27877 17.1281 2.25112 17.3673 2.17197C17.6064 2.09281 17.8228 1.96424 18 1.79606C17.901 2.20987 17.6999 2.59695 17.4123 2.92708C17.1247 3.2572 16.7585 3.52144 16.3421 3.69916C16.095 9.96988 12.9748 14.1662 5.65332 13.9949H5.14874C4.70595 13.9949 0.731121 13.5667 0 12.2441C1.75201 12.4899 3.53888 12.0976 4.98398 11.1498C3.95423 10.8643 2.13158 10.7026 1.82265 8.40934C2.2108 8.54337 2.6321 8.57306 3.03776 8.49498C1.76087 7.70519 0.339817 7.0391 0.422197 4.99327C0.819634 5.29882 1.3269 5.45507 1.84325 5.43098C1.10183 5.20261 -0.24714 2.30989 0.895881 0.825474C2.82151 2.54778 4.86041 4.17493 8.48512 4.3367C8.71167 2.20522 9.68993 0.777896 11.5641 0.168904Z"/>
</g>
</symbol>

<symbol  id="fb" viewBox="0 0 9 18">
<g>
<path d="M6.50865 3.19324H9V0H6.02076C2.76125 0.171067 1.59862 2.27138 2.07612 5.81626H0V9.15206H2.07612V18H6.02076V9.15206H8.97924V5.81626H6.01038C5.98962 4.81837 5.96886 3.52587 6.50865 3.19324Z" />
</g>
</symbol>

<symbol  id="youtube" viewBox="0 0 15 13">
<g>
<path d="M1.83356 12.8089C1.64633 12.9278 1.42471 12.9941 1.19626 12.9996C0.967817 13.0051 0.74263 12.9495 0.548717 12.8398C0.354804 12.7301 0.200724 12.571 0.105646 12.3824C0.010569 12.1938 -0.0213097 11.984 0.0139762 11.779V1.22097C-0.0213097 1.01605 0.010569 0.806234 0.105646 0.617628C0.200724 0.429021 0.354804 0.269949 0.548717 0.1602C0.74263 0.0504516 0.967817 -0.00512927 1.19626 0.000372265C1.42471 0.0058738 1.64633 0.0722149 1.83356 0.191142L14.2333 5.69284C15.2556 6.13817 15.2556 6.86183 14.2333 7.30716L1.83356 12.8089Z" />
</g>
</symbol>

<symbol  id="htmlacademy" viewBox="0 0 27 34">
<g>
<path d="M13.6426 0.0157537L13.5 0L0 1.40733V26.0129L13.5 34L27 26.0129V1.40733L13.6426 0.0157537ZM25.2344 25.0151L13.5 31.9573L1.76561 25.0151V14.9293L13.4507 21.8451L13.4701 23.0984L5.45351 18.3548L5.44295 19.5801L13.4894 24.3885L13.5088 25.675L5.46408 20.9174L5.45351 22.1427L13.5 26.9511L21.6239 22.1182V20.8929V16.909L25.2432 14.7595L25.2344 25.0151ZM25.2344 13.4519L22.0147 15.3319L20.5325 16.2071L13.4666 12.0201L13.456 13.2454L19.4957 16.818L19.4429 16.8495L19.3126 16.9247L18.4536 17.4166L13.4666 14.4689L13.456 15.6942L17.3921 18.0222L16.4591 18.6314L16.438 18.6436L13.4666 16.902L13.456 18.1273L15.4029 19.2615L13.4155 20.4483L1.7973 13.5762L13.4349 6.61831L25.2344 13.4519ZM25.2344 12.2266L13.4401 5.31075L1.76561 12.2196V2.9897L13.5 1.76442L25.2344 2.9897V12.2266Z"/>
</g>
</symbol>

<symbol  id="pink" viewBox="0 0 74 23">
<g>
<path d="M0.00496827 1.54857C0.00487772 1.21254 0.135804 0.889818 0.369742 0.649431C0.60368 0.409043 0.922049 0.27008 1.25676 0.262266H8.39001C13.4469 0.262266 16.7751 2.9645 16.7751 7.39179V7.45162C16.7751 12.2977 12.7415 14.8105 7.97274 14.8105H2.53836V21.611C2.55394 21.7874 2.53277 21.9651 2.47619 22.1329C2.41961 22.3006 2.32887 22.4547 2.20973 22.5854C2.09058 22.716 1.94565 22.8204 1.78416 22.8918C1.62266 22.9631 1.44812 23 1.27166 23C1.0952 23 0.920671 22.9631 0.759173 22.8918C0.597674 22.8204 0.452744 22.716 0.333602 22.5854C0.21446 22.4547 0.123708 22.3006 0.0671295 22.1329C0.0105515 21.9651 -0.0106138 21.7874 0.00496827 21.611V1.54857ZM8.07209 12.5171C11.7778 12.5171 14.2119 10.5228 14.2119 7.53139V7.47156C14.2119 4.26078 11.8175 2.59556 8.25092 2.59556H2.58804V12.4772L8.07209 12.5171Z"/>
<path d="M21.5935 1.38904C21.5779 1.21262 21.5991 1.03487 21.6556 0.867114C21.7122 0.699353 21.803 0.545245 21.9221 0.414596C22.0412 0.283947 22.1862 0.179616 22.3477 0.108238C22.5092 0.0368607 22.6837 0 22.8602 0C23.0366 0 23.2112 0.0368607 23.3727 0.108238C23.5342 0.179616 23.6791 0.283947 23.7982 0.414596C23.9174 0.545245 24.0081 0.699353 24.0647 0.867114C24.1213 1.03487 24.1425 1.21262 24.1269 1.38904V21.611C24.1425 21.7874 24.1213 21.9651 24.0647 22.1329C24.0081 22.3006 23.9174 22.4548 23.7982 22.5854C23.6791 22.7161 23.5342 22.8204 23.3727 22.8918C23.2112 22.9631 23.0366 23 22.8602 23C22.6837 23 22.5092 22.9631 22.3477 22.8918C22.1862 22.8204 22.0412 22.7161 21.9221 22.5854C21.803 22.4548 21.7122 22.3006 21.6556 22.1329C21.5991 21.9651 21.5779 21.7874 21.5935 21.611V1.38904Z"/>
<path d="M30.674 1.41895C30.6816 1.08908 30.8163 0.775007 31.0497 0.542621C31.2831 0.310235 31.597 0.177597 31.9258 0.172531H32.2735C32.5316 0.177833 32.7843 0.248188 33.0082 0.377127C33.2322 0.506065 33.4202 0.689448 33.5551 0.910412L47.1559 18.3104V1.35912C47.1559 1.0312 47.2857 0.7167 47.5168 0.484821C47.7478 0.252942 48.0611 0.122673 48.3879 0.122673C48.7146 0.122673 49.0279 0.252942 49.259 0.484821C49.49 0.7167 49.6198 1.0312 49.6198 1.35912V21.6508C49.6252 21.8051 49.5993 21.9589 49.5435 22.1028C49.4878 22.2467 49.4034 22.3777 49.2956 22.4878C49.1877 22.5979 49.0587 22.6848 48.9163 22.7432C48.7739 22.8016 48.6211 22.8303 48.4673 22.8275H48.3382C48.0744 22.8092 47.8184 22.7294 47.5908 22.5944C47.3631 22.4593 47.17 22.2728 47.0268 22.0497L33.1179 4.24085V21.6508C33.1158 21.9722 32.991 22.2805 32.7692 22.5124C32.5474 22.7442 32.2456 22.882 31.9258 22.8973C31.6008 22.892 31.291 22.7581 31.064 22.5246C30.8369 22.2911 30.711 21.9771 30.7137 21.6508V1.41895H30.674Z" />
<path d="M55.9384 1.38904C55.9228 1.21262 55.944 1.03487 56.0005 0.867114C56.0571 0.699353 56.1479 0.545245 56.267 0.414596C56.3862 0.283947 56.5311 0.179616 56.6926 0.108238C56.8541 0.0368607 57.0286 0 57.2051 0C57.3815 0 57.5561 0.0368607 57.7176 0.108238C57.8791 0.179616 58.024 0.283947 58.1431 0.414596C58.2623 0.545245 58.353 0.699353 58.4096 0.867114C58.4662 1.03487 58.4874 1.21262 58.4718 1.38904V13.6837L71.2282 0.551443C71.4899 0.279712 71.8455 0.119105 72.2216 0.10273C72.5468 0.115453 72.8548 0.252812 73.0821 0.486531C73.3094 0.72025 73.4388 1.03254 73.4436 1.35912C73.4366 1.52896 73.3961 1.69572 73.3245 1.84975C73.2529 2.00379 73.1516 2.14205 73.0264 2.25655L65.0785 10.1539L73.6523 20.6836C73.8764 20.9441 73.9998 21.2768 74 21.6209C73.9961 21.7933 73.9583 21.9633 73.8887 22.121C73.8191 22.2786 73.719 22.4209 73.5943 22.5395C73.4696 22.6582 73.3228 22.7509 73.1622 22.8123C73.0016 22.8737 72.8305 22.9026 72.6588 22.8973C72.4588 22.8891 72.2639 22.8322 72.0908 22.7314C71.9177 22.6306 71.7716 22.4891 71.6653 22.3189L63.3001 11.859L58.4718 16.7051V21.591C58.4718 21.7573 58.4391 21.922 58.3757 22.0756C58.3123 22.2293 58.2194 22.3689 58.1022 22.4865C57.9851 22.6041 57.846 22.6973 57.6929 22.761C57.5398 22.8246 57.3757 22.8574 57.21 22.8574C57.0443 22.8574 56.8803 22.8246 56.7272 22.761C56.5741 22.6973 56.435 22.6041 56.3179 22.4865C56.2007 22.3689 56.1078 22.2293 56.0443 22.0756C55.9809 21.922 55.9483 21.7573 55.9483 21.591V1.38904H55.9384Z" />
</g>
</symbol>

<symbol  id="burger" viewBox="0 0 50 24" >
<g>
<path d="M1.13659 0.00020839C0.986512 -0.00251551 0.837358 0.0214885 0.698091 0.0707781C0.558823 0.120068 0.432317 0.193625 0.326173 0.28703C0.22003 0.380436 0.136442 0.49176 0.0804303 0.614315C0.024419 0.73687 -0.00285856 0.868124 0.000236809 1.00019V3.00016C0.000236809 3.26537 0.119959 3.51972 0.333067 3.70725C0.546174 3.89478 0.83521 4.00014 1.13659 4.00014H48.8634C49.0135 4.00286 49.1626 3.97886 49.3019 3.92957C49.4412 3.88028 49.5677 3.80672 49.6738 3.71332C49.78 3.61991 49.8636 3.50859 49.9196 3.38603C49.9756 3.26348 50.0029 3.13222 49.9998 3.00016V1.00019C49.9998 0.734979 49.88 0.48063 49.6669 0.293097C49.4538 0.105563 49.1648 0.00020839 48.8634 0.00020839H1.13659ZM1.13659 10C0.986512 9.99731 0.837358 10.0213 0.698091 10.0706C0.558823 10.1199 0.432317 10.1935 0.326173 10.2869C0.22003 10.3803 0.136442 10.4916 0.0804303 10.6141C0.024419 10.7367 -0.00285856 10.868 0.000236809 11V13C0.000236809 13.2652 0.119959 13.5195 0.333067 13.7071C0.546174 13.8946 0.83521 14 1.13659 14H48.8634C49.0135 14.0027 49.1626 13.9787 49.3019 13.9294C49.4412 13.8801 49.5677 13.8065 49.6738 13.7131C49.78 13.6197 49.8636 13.5084 49.9196 13.3859C49.9756 13.2633 50.0029 13.132 49.9998 13V11C49.9998 10.7348 49.88 10.4805 49.6669 10.2929C49.4538 10.1054 49.1648 10 48.8634 10H1.13659ZM1.13659 19.9999C0.986512 19.9971 0.837358 20.0211 0.698091 20.0704C0.558823 20.1197 0.432317 20.1933 0.326173 20.2867C0.22003 20.3801 0.136442 20.4914 0.0804303 20.614C0.024419 20.7365 -0.00285856 20.8678 0.000236809 20.9998V22.9998C0.000236809 23.265 0.119959 23.5194 0.333067 23.7069C0.546174 23.8944 0.83521 23.9998 1.13659 23.9998H48.8634C49.0135 24.0025 49.1626 23.9785 49.3019 23.9292C49.4412 23.8799 49.5677 23.8064 49.6738 23.713C49.78 23.6196 49.8636 23.5082 49.9196 23.3857C49.9756 23.2631 50.0029 23.1319 49.9998 22.9998V20.9998C49.9998 20.7346 49.88 20.4803 49.6669 20.2927C49.4538 20.1052 49.1648 19.9999 48.8634 19.9999H1.13659Z"/>
</g>
</symbol>

<symbol  id="close" viewBox="0 0 23 23">
<g>
<path d="M20.8487 1.37761e-06L0 20.8487L2.15131 23L23 2.15131L20.8487 1.37761e-06Z"/>
<path d="M2.15131 0L0 2.15131L20.8487 23L23 20.8487L2.15131 0Z"/>
</g>
</symbol>

<symbol  id="crop" viewBox="0 0 22 22">
<g>
<path d="M16 14H18V6C18 5.46957 17.7893 4.96086 17.4142 4.58579C17.0391 4.21071 16.5304 4 16 4H8V6H16V14ZM6 16V0H4V4H0V6H4V16C4 16.5304 4.21071 17.0391 4.58579 17.4142C4.96086 17.7893 5.46957 18 6 18H16V22H18V18H22V16H6Z"/>
</g>
</symbol>

<symbol  id="fill" viewBox="0 0 48 43">
<g>
<path d="M33.12 17.88L15.24 0L12.41 2.83L17.17 7.59L6.88 17.88C6.3182 18.4425 6.00264 19.205 6.00264 20C6.00264 20.795 6.3182 21.5575 6.88 22.12L17.88 33.12C18.4425 33.6818 19.205 33.9974 20 33.9974C20.795 33.9974 21.5575 33.6818 22.12 33.12L33.12 22.12C33.6818 21.5575 33.9974 20.795 33.9974 20C33.9974 19.205 33.6818 18.4425 33.12 17.88ZM10.41 20L20 10.42L29.59 20H10.41ZM38 23C38 23 34 27.33 34 30C34 31.0609 34.4214 32.0783 35.1716 32.8284C35.9217 33.5786 36.9391 34 38 34C39.0609 34 40.0783 33.5786 40.8284 32.8284C41.5786 32.0783 42 31.0609 42 30C42 27.33 38 23 38 23Z"/>
<path d="M48 40H0V43H48V40Z"/>
</g>
</symbol>

<symbol  id="contrast" viewBox="0 0 32 32">
<g>
<path d="M16 4C18.3734 4 20.6935 4.70379 22.6669 6.02236C24.6402 7.34094 26.1783 9.21509 27.0866 11.4078C27.9948 13.6005 28.2325 16.0133 27.7694 18.3411C27.3064 20.6689 26.1635 22.8071 24.4853 24.4853C22.8071 26.1635 20.6689 27.3064 18.3411 27.7694C16.0133 28.2324 13.6005 27.9948 11.4078 27.0866C9.21509 26.1783 7.34095 24.6402 6.02237 22.6668C4.70379 20.6935 4.00001 18.3734 4.00001 16C4.00001 12.8174 5.26429 9.76515 7.51473 7.51472C9.76516 5.26428 12.8174 4 16 4ZM16 0C12.8355 0 9.74207 0.938384 7.11088 2.69649C4.4797 4.45459 2.42894 6.95345 1.21793 9.87706C0.0069325 12.8007 -0.309921 16.0177 0.307443 19.1214C0.924806 22.2251 2.44866 25.0761 4.6863 27.3137C6.92394 29.5513 9.77487 31.0752 12.8786 31.6926C15.9823 32.3099 19.1993 31.9931 22.1229 30.7821C25.0466 29.5711 27.5454 27.5203 29.3035 24.8891C31.0616 22.2579 32 19.1645 32 16C32 11.7565 30.3143 7.68687 27.3137 4.68629C24.3131 1.68571 20.2435 0 16 0Z"/>
<path d="M16 24.29C18.1536 24.1422 20.1708 23.1824 21.644 21.6046C23.1172 20.0268 23.9366 17.9486 23.9366 15.79C23.9366 13.6314 23.1172 11.5532 21.644 9.97538C20.1708 8.39759 18.1536 7.43782 16 7.29"/>
</g>
</symbol>

<symbol  id="cont-phone" viewBox="0 0 20 19">
<g>
<path d="M10.0408 0C6.46361 0 2.90684 0.608386 1.58197 1.8155C0.624506 2.9164 0.0701613 4.28212 0.00231714 5.70724C-0.000772379 5.76193 -0.000772379 5.81673 0.00231714 5.87141C0.00231714 6.08143 0.0903626 6.28284 0.247084 6.43135C0.403806 6.57985 0.616367 6.66328 0.838005 6.66328L4.07884 6.4122H4.16037C4.26878 6.41094 4.37587 6.38946 4.47551 6.34898C4.57516 6.3085 4.66541 6.24982 4.74112 6.17628C4.81683 6.10275 4.87651 6.0158 4.91676 5.92041C4.95701 5.82502 4.97703 5.72305 4.97568 5.62033V4.04625C4.97433 3.93131 4.99706 3.81725 5.04255 3.71069C5.08804 3.60412 5.15539 3.50717 5.2407 3.42544C5.326 3.34371 5.42757 3.27882 5.53952 3.23454C5.65148 3.19026 5.77159 3.16746 5.8929 3.16747H14.046C14.2919 3.16747 14.5278 3.26006 14.7017 3.42486C14.8757 3.58966 14.9734 3.81318 14.9734 4.04625V5.60102C14.9733 5.80773 15.0585 6.00627 15.2109 6.15423C15.3632 6.30219 15.5706 6.38784 15.7887 6.39288H15.8804L19.162 6.64396C19.2717 6.64396 19.3804 6.62348 19.4818 6.58369C19.5832 6.54389 19.6753 6.48556 19.7529 6.41203C19.8305 6.3385 19.8921 6.2512 19.9341 6.15513C19.9761 6.05906 19.9977 5.95609 19.9977 5.8521C20.0008 5.79741 20.0008 5.74261 19.9977 5.68793C19.9242 4.27608 19.378 2.92311 18.4384 1.82516C17.1951 0.608386 13.6179 0 10.0408 0ZM10.0408 10.3039C9.7102 10.3039 9.38705 10.3968 9.1122 10.5708C8.83734 10.7449 8.62312 10.9922 8.49662 11.2816C8.37011 11.571 8.33701 11.8894 8.4015 12.1966C8.46599 12.5039 8.62518 12.7861 8.85892 13.0075C9.09267 13.229 9.39048 13.3799 9.7147 13.441C10.0389 13.5021 10.375 13.4707 10.6804 13.3509C10.9858 13.231 11.2468 13.028 11.4305 12.7676C11.6141 12.5071 11.7121 12.2009 11.7121 11.8877C11.7135 11.6793 11.6712 11.4728 11.5877 11.2801C11.5042 11.0874 11.3811 10.9123 11.2256 10.7649C11.0702 10.6176 10.8854 10.501 10.682 10.4219C10.4786 10.3427 10.2606 10.3027 10.0408 10.3039ZM8.78723 6.75985V5.79416C8.78723 5.53804 8.67986 5.29241 8.48874 5.11131C8.29761 4.9302 8.03839 4.82846 7.7681 4.82846C7.49781 4.82846 7.23859 4.9302 7.04747 5.11131C6.85634 5.29241 6.74897 5.53804 6.74897 5.79416V6.75985L1.02145 12.4478C0.818967 12.6306 0.658375 12.8511 0.54967 13.0953C0.440965 13.3395 0.386473 13.6023 0.389587 13.8673V15.4511C0.389579 15.872 0.565344 16.2758 0.878498 16.5744C1.19165 16.8729 1.61675 17.0419 2.06096 17.0445H2.47881V18.0102C2.47881 18.1402 2.50583 18.2689 2.55832 18.389C2.61082 18.5091 2.68777 18.6182 2.78477 18.7101C2.88177 18.802 2.99692 18.8749 3.12366 18.9247C3.2504 18.9744 3.38624 19 3.52342 19C3.6606 19 3.79643 18.9744 3.92317 18.9247C4.04991 18.8749 4.16507 18.802 4.26207 18.7101C4.35907 18.6182 4.43601 18.5091 4.48851 18.389C4.54101 18.2689 4.56803 18.1402 4.56803 18.0102V17.0445H15.4727V18.0102C15.4727 18.2727 15.5828 18.5245 15.7787 18.7101C15.9746 18.8957 16.2403 19 16.5173 19C16.7944 19 17.0601 18.8957 17.256 18.7101C17.4519 18.5245 17.562 18.2727 17.562 18.0102V17.0445H17.9798C18.2001 17.0445 18.4183 17.0032 18.6218 16.923C18.8252 16.8428 19.0099 16.7253 19.1653 16.5772C19.3206 16.4291 19.4435 16.2534 19.5269 16.0601C19.6103 15.8669 19.6525 15.6599 19.6512 15.4511V13.8673C19.6556 13.603 19.6027 13.3406 19.4958 13.0964C19.3888 12.8523 19.2301 12.6315 19.0295 12.4478L13.3835 6.75985V5.79416C13.3835 5.53163 13.2735 5.27987 13.0776 5.09424C12.8817 4.90861 12.616 4.80432 12.3389 4.80432C12.0619 4.80432 11.7962 4.90861 11.6003 5.09424C11.4044 5.27987 11.2943 5.53163 11.2943 5.79416V6.75985H8.78723ZM10.0408 8.69123C10.7019 8.69123 11.3482 8.877 11.8979 9.22505C12.4476 9.57309 12.8761 10.0678 13.1291 10.6466C13.3821 11.2253 13.4483 11.8622 13.3193 12.4766C13.1903 13.0911 12.8719 13.6555 12.4044 14.0984C11.937 14.5414 11.3413 14.8431 10.6929 14.9653C10.0445 15.0875 9.37236 15.0248 8.76155 14.7851C8.15074 14.5453 7.62867 14.1393 7.26137 13.6185C6.89406 13.0976 6.69801 12.4852 6.69801 11.8587C6.69801 11.0186 7.05019 10.213 7.67708 9.61896C8.30397 9.02495 9.15421 8.69123 10.0408 8.69123Z"/>
</g>
</symbol>

<symbol  id="cont-mail" viewBox="0 0 18 13">
<g>
<path d="M14.9101 1.68071C16.1101 0.752143 15.8201 0 14.2601 0H3.73007C2.17007 0 1.88007 0.761428 3.07007 1.68071L6.82007 4.57786C7.44102 5.02891 8.2067 5.27397 8.99507 5.27397C9.78344 5.27397 10.5491 5.02891 11.1701 4.57786L14.9101 1.68071Z"/>
<path d="M11.9101 6.5L9.70007 8.24571C9.61906 8.29331 9.53164 8.33078 9.44007 8.35714L9.34007 8.40357C9.23142 8.44582 9.11701 8.47395 9.00007 8.48714L8.67007 8.43143L8.55007 8.35714C8.46475 8.32289 8.38417 8.27925 8.31007 8.22714L6.08007 6.5L2.18007 3.52857C1.00007 2.6 7.0672e-05 3.02714 7.0672e-05 4.47571V10.335C-0.002565 10.6825 0.0685454 11.0272 0.209341 11.3492C0.350138 11.6712 0.557862 11.9643 0.820654 12.2118C1.08345 12.4592 1.39616 12.6562 1.74093 12.7915C2.08571 12.9267 2.4558 12.9976 2.83007 13H15.1501C15.526 13 15.8983 12.9309 16.2454 12.7968C16.5924 12.6626 16.9075 12.466 17.1724 12.2183C17.4373 11.9706 17.6469 11.6767 17.7889 11.3534C17.9309 11.0302 18.0027 10.6841 18.0001 10.335V4.47571C18.0001 3.02714 17.0001 2.61857 15.8201 3.54714L11.9101 6.5Z"/>
</g>
</symbol>

<symbol id="phone" viewBox="0 0 20 20">
<g>
<path d="M10.0001 19.2308C4.92313 19.2308 0.769287 15.077 0.769287 10.0001C0.769287 4.92313 4.92313 0.769287 10.0001 0.769287C15.077 0.769287 19.2308 4.92313 19.2308 10.0001C19.2308 15.077 15.077 19.2308 10.0001 19.2308ZM10.0001 1.92313C5.55775 1.92313 1.92313 5.55775 1.92313 10.0001C1.92313 14.4424 5.55775 18.077 10.0001 18.077C14.4424 18.077 18.077 14.4424 18.077 10.0001C18.077 5.55775 14.4424 1.92313 10.0001 1.92313Z" />
<path d="M9.64085 6.34213L9.51397 6.12296C9.42836 5.9749 9.38562 5.90089 9.34179 5.84323C9.01866 5.41807 8.4432 5.26828 7.94483 5.47941C7.87724 5.50805 7.80219 5.55099 7.65195 5.63761C6.83644 6.15562 6.89782 7.92355 6.95028 8.18552C6.95028 8.18552 6.9609 9.05164 8.14374 11.0976C9.32658 13.1436 10.1991 13.8053 10.1991 13.8053C10.6955 14.2137 11.9024 14.9187 12.7594 14.4724C12.9096 14.3858 12.9846 14.3424 13.0433 14.2983C13.4755 13.9728 13.6333 13.4 13.4261 12.9079C13.398 12.8412 13.3553 12.7671 13.2697 12.619L13.143 12.3999C13.0052 12.1615 12.9139 12.0038 12.83 11.8902C12.7585 11.7934 12.655 11.7266 12.5455 11.673C12.0723 11.4418 11.138 11.6606 10.6462 11.4678C10.5953 11.4479 10.5455 11.4246 10.4971 11.3981C10.4477 11.371 10.4003 11.3411 10.3577 11.3045C10.225 11.1903 9.91153 10.8907 9.6227 10.3911C9.24881 9.7444 9.21883 9.28783 9.2181 9.27577V9.27497C9.21033 9.13319 9.22387 8.99268 9.2566 8.85696C9.37745 8.35594 9.99418 7.66362 9.9866 7.15304C9.98548 7.07748 9.97845 7.00176 9.95229 6.93149C9.89948 6.78965 9.8021 6.62104 9.64085 6.34213Z">
        </g>
    </symbol>

    <symbol id="instagram" viewBox="0 0 20 20">
         <g>
                <path d="M12.5256 10.0001C12.5256 11.3949 11.3949 12.5257 9.99999 12.5257V14.5257C12.4994 14.5257 14.5256 12.4995 14.5256 10.0001H12.5256ZM9.99999 12.5257C8.60512 12.5257 7.47435 11.3949 7.47435 10.0001H5.47435C5.47435 12.4995 7.50055 14.5257 9.99999 14.5257V12.5257ZM7.47435 10.0001C7.47435 8.60518 8.60512 7.47441 9.99999 7.47441V5.47441C7.50055 5.47441 5.47435 7.50061 5.47435 10.0001H7.47435ZM9.99999 7.47441C11.3949 7.47441 12.5256 8.60518 12.5256 10.0001H14.5256C14.5256 7.50061 12.4994 5.47441 9.99999 5.47441V7.47441ZM9.99999 17.4616C8.67211 17.4616 7.72629 17.461 6.98154 17.4102C6.24578 17.36 5.77961 17.2641 5.40343 17.1083L4.63807 18.9561C5.29855 19.2297 6.00781 19.3484 6.8454 19.4056C7.67401 19.4621 8.69948 19.4616 9.99999 19.4616V17.4616ZM0.538452 10.0001C0.538452 11.3006 0.537911 12.326 0.594446 13.1546C0.651595 13.9922 0.770388 14.7015 1.04397 15.362L2.89173 14.5966C2.73591 14.2204 2.64001 13.7543 2.58981 13.0185C2.53899 12.2738 2.53845 11.3279 2.53845 10.0001H0.538452ZM5.40343 17.1083C4.26625 16.6373 3.36277 15.7338 2.89173 14.5966L1.04397 15.362C1.71799 16.9892 3.01083 18.282 4.63807 18.9561L5.40343 17.1083ZM17.4615 10.0001C17.4615 11.3279 17.461 12.2738 17.4102 13.0185C17.36 13.7543 17.2641 14.2204 17.1083 14.5966L18.956 15.362C19.2296 14.7015 19.3484 13.9922 19.4055 13.1546C19.4621 12.326 19.4615 11.3006 19.4615 10.0001H17.4615ZM9.99999 19.4616C11.3005 19.4616 12.326 19.4621 13.1546 19.4056C13.9922 19.3484 14.7014 19.2297 15.3619 18.9561L14.5965 17.1083C14.2204 17.2641 13.7542 17.36 13.0184 17.4102C12.2737 17.461 11.3279 17.4616 9.99999 17.4616V19.4616ZM17.1083 14.5966C16.6372 15.7338 15.7337 16.6373 14.5965 17.1083L15.3619 18.9561C16.9892 18.282 18.282 16.9892 18.956 15.362L17.1083 14.5966ZM9.99999 2.53851C11.3279 2.53851 12.2737 2.53905 13.0184 2.58987C13.7542 2.64007 14.2204 2.73597 14.5965 2.89179L15.3619 1.04403C14.7014 0.770449 13.9922 0.651656 13.1546 0.594507C12.326 0.537972 11.3005 0.538513 9.99999 0.538513V2.53851ZM19.4615 10.0001C19.4615 8.69954 19.4621 7.67407 19.4055 6.84546C19.3484 6.00787 19.2296 5.29861 18.956 4.63813L17.1083 5.4035C17.2641 5.77967 17.36 6.24584 17.4102 6.9816C17.461 7.72635 17.4615 8.67217 17.4615 10.0001H19.4615ZM14.5965 2.89179C15.7337 3.36283 16.6372 4.26631 17.1083 5.4035L18.956 4.63813C18.282 3.01089 16.9892 1.71806 15.3619 1.04403L14.5965 2.89179ZM9.99999 0.538513C8.69948 0.538513 7.67401 0.537972 6.8454 0.594507C6.00781 0.651656 5.29855 0.770449 4.63807 1.04403L5.40343 2.89179C5.77961 2.73597 6.24578 2.64007 6.98154 2.58987C7.72629 2.53905 8.67211 2.53851 9.99999 2.53851V0.538513ZM2.53845 10.0001C2.53845 8.67217 2.53899 7.72635 2.58981 6.9816C2.64001 6.24584 2.73591 5.77967 2.89173 5.4035L1.04397 4.63813C0.770388 5.29861 0.651595 6.00787 0.594446 6.84546C0.537911 7.67407 0.538452 8.69954 0.538452 10.0001H2.53845ZM4.63807 1.04403C3.01083 1.71806 1.71799 3.01089 1.04397 4.63813L2.89173 5.4035C3.36277 4.26631 4.26625 3.36283 5.40343 2.89179L4.63807 1.04403Z">
            </g>
    </symbol>


</svg>
